<?xml version="1.0" encoding="UTF-8" standalone="no"?>
<!-- Generator: Adobe Illustrator 19.0.0, SVG Export Plug-In . SVG Version: 6.00 Build 0)  -->

<svg
   xmlns:dc="http://purl.org/dc/elements/1.1/"
   xmlns:cc="http://creativecommons.org/ns#"
   xmlns:rdf="http://www.w3.org/1999/02/22-rdf-syntax-ns#"
   xmlns:svg="http://www.w3.org/2000/svg"
   xmlns="http://www.w3.org/2000/svg"
   xmlns:sodipodi="http://sodipodi.sourceforge.net/DTD/sodipodi-0.dtd"
   xmlns:inkscape="http://www.inkscape.org/namespaces/inkscape"
   version="1.1"
   id="Layer_1"
   x="0px"
   y="0px"
   viewBox="0 0 50 50.000099"
   xml:space="preserve"
   sodipodi:docname="close.svg"
   width="50"
   height="50.000099"
   inkscape:version="0.92.2 5c3e80d, 2017-08-06"><metadata
     id="metadata49"><rdf:RDF><cc:Work
         rdf:about=""><dc:format>image/svg+xml</dc:format><dc:type
           rdf:resource="http://purl.org/dc/dcmitype/StillImage" /></cc:Work></rdf:RDF></metadata><defs
     id="defs47" /><sodipodi:namedview
     pagecolor="#ffffff"
     bordercolor="#666666"
     borderopacity="1"
     objecttolerance="10"
     gridtolerance="10"
     guidetolerance="10"
     inkscape:pageopacity="0"
     inkscape:pageshadow="2"
     inkscape:window-width="1440"
     inkscape:window-height="775"
     id="namedview45"
     showgrid="false"
     inkscape:zoom="5.2149125"
     inkscape:cx="-26.93097"
     inkscape:cy="38.013208"
     inkscape:window-x="0"
     inkscape:window-y="1"
     inkscape:window-maximized="1"
     inkscape:current-layer="g57" /><g
     id="g57"><g
       transform="matrix(0.0976563,0,0,0.0976563,-2.4414075e-5,-2.4414075e-5)"
       id="g6"
       style="fill:#f3f7f0;fill-opacity:1"><path
         d="m 505.943,6.058 c -8.077,-8.077 -21.172,-8.077 -29.249,0 L 6.058,476.693 c -8.077,8.077 -8.077,21.172 0,29.249 4.038,4.04 9.332,6.058 14.625,6.058 5.293,0 10.586,-2.019 14.625,-6.059 L 505.943,35.306 c 8.076,-8.076 8.076,-21.171 0,-29.248 z"
         id="path2"
         inkscape:connector-curvature="0"
         style="fill:#f3f7f0;fill-opacity:1" /></g><g
       transform="matrix(0.0976563,0,0,0.0976563,-2.4414075e-5,-2.4414075e-5)"
       id="g12"
       style="fill:#f3f7f0;fill-opacity:1"><g
         id="g10"
         style="fill:#f3f7f0;fill-opacity:1"><path
           inkscape:connector-curvature="0"
           id="path8"
           d="M 505.942,476.694 35.306,6.059 c -8.076,-8.077 -21.172,-8.077 -29.248,0 -8.077,8.076 -8.077,21.171 0,29.248 l 470.636,470.636 c 4.038,4.039 9.332,6.058 14.625,6.058 5.293,0 10.587,-2.019 14.624,-6.057 8.075,-8.078 8.075,-21.173 -10e-4,-29.25 z"
           style="fill:#f3f7f0;fill-opacity:1" /></g></g></g><g
     id="g14"
     transform="translate(-2.5e-4,-462.0009)" /><g
     id="g16"
     transform="translate(-2.5e-4,-462.0009)" /><g
     id="g18"
     transform="translate(-2.5e-4,-462.0009)" /><g
     id="g20"
     transform="translate(-2.5e-4,-462.0009)" /><g
     id="g22"
     transform="translate(-2.5e-4,-462.0009)" /><g
     id="g24"
     transform="translate(-2.5e-4,-462.0009)" /><g
     id="g26"
     transform="translate(-2.5e-4,-462.0009)" /><g
     id="g28"
     transform="translate(-2.5e-4,-462.0009)" /><g
     id="g30"
     transform="translate(-2.5e-4,-462.0009)" /><g
     id="g32"
     transform="translate(-2.5e-4,-462.0009)" /><g
     id="g34"
     transform="translate(-2.5e-4,-462.0009)" /><g
     id="g36"
     transform="translate(-2.5e-4,-462.0009)" /><g
     id="g38"
     transform="translate(-2.5e-4,-462.0009)" /><g
     id="g40"
     transform="translate(-2.5e-4,-462.0009)" /><g
     id="g42"
     transform="translate(-2.5e-4,-462.0009)" /></svg>