<?xml version="1.0" encoding="UTF-8" standalone="no"?>
<!-- Generator: Adobe Illustrator 16.0.0, SVG Export Plug-In . SVG Version: 6.00 Build 0)  -->

<svg
   xmlns:dc="http://purl.org/dc/elements/1.1/"
   xmlns:cc="http://creativecommons.org/ns#"
   xmlns:rdf="http://www.w3.org/1999/02/22-rdf-syntax-ns#"
   xmlns:svg="http://www.w3.org/2000/svg"
   xmlns="http://www.w3.org/2000/svg"
   xmlns:sodipodi="http://sodipodi.sourceforge.net/DTD/sodipodi-0.dtd"
   xmlns:inkscape="http://www.inkscape.org/namespaces/inkscape"
   version="1.1"
   id="Capa_1"
   x="0px"
   y="0px"
   width="50"
   height="50.818882"
   viewBox="0 0 50.000002 50.818884"
   xml:space="preserve"
   sodipodi:docname="outcome-call.svg"
   inkscape:version="0.92.2 5c3e80d, 2017-08-06"><metadata
     id="metadata49"><rdf:RDF><cc:Work
         rdf:about=""><dc:format>image/svg+xml</dc:format><dc:type
           rdf:resource="http://purl.org/dc/dcmitype/StillImage" /></cc:Work></rdf:RDF></metadata><defs
     id="defs47" /><sodipodi:namedview
     pagecolor="#ffffff"
     bordercolor="#666666"
     borderopacity="1"
     objecttolerance="10"
     gridtolerance="10"
     guidetolerance="10"
     inkscape:pageopacity="0"
     inkscape:pageshadow="2"
     inkscape:window-width="1440"
     inkscape:window-height="775"
     id="namedview45"
     showgrid="false"
     inkscape:zoom="7.5872244"
     inkscape:cx="16.571414"
     inkscape:cy="38.427162"
     inkscape:window-x="0"
     inkscape:window-y="1"
     inkscape:window-maximized="1"
     inkscape:current-layer="g10" /><g
     id="g12"
     style="fill:#fb4b4e;fill-opacity:1"
     transform="matrix(0.14440778,0,0,0.14440778,-0.40934975,5.1986801e-5)"><g
       id="g10"
       style="fill:#fb4b4e;fill-opacity:1"><g
         id="g4"
         style="fill:#fde74c;fill-opacity:1"><path
           d="m 342.237,284.604 -54.638,-54.668 c -4.257,-4.245 -10.189,-6.581 -16.693,-6.581 -6.845,0 -13.462,2.672 -18.134,7.338 l -29.525,29.537 -7.98,-4.425 C 197.703,246.072 173.668,232.722 148.268,207.298 122.775,181.825 109.42,157.722 99.647,140.104 l -4.366,-7.758 29.589,-29.576 c 9.791,-9.821 10.121,-25.439 0.738,-34.84 L 70.961,13.29 C 66.707,9.047 60.786,6.699 54.286,6.699 c -6.854,0 -13.459,2.682 -18.131,7.359 l -13.418,13.505 -1.261,2.06 C 16.489,36.03 12.4,43.229 9.332,51.075 6.497,58.553 4.72,65.66 3.915,72.788 c -7.046,58.556 19.96,112.317 93.212,185.563 86.835,86.812 159.386,93.561 179.556,93.561 3.452,0 5.536,-0.186 6.131,-0.246 7.451,-0.906 14.586,-2.69 21.779,-5.488 7.77,-3.026 14.945,-7.086 21.329,-12.088 l 3.057,-2.402 12.556,-12.321 c 9.775,-9.771 10.088,-25.371 0.702,-34.763 z"
           id="path2"
           style="fill:#fde74c;fill-opacity:1"
           inkscape:connector-curvature="0" /></g><g
         id="g8"
         style="fill:#fde74c;fill-opacity:1"
         transform="rotate(-180,267.14477,78.79632)"><path
           d="m 198.194,157.593 c 9.68,-0.015 86.907,-10.854 89.802,-11.286 0.919,0 5.675,-0.108 8.095,-2.543 1.52,-1.519 3.272,-4.875 -2.071,-10.22 l -19.155,-19.149 68.466,-68.449 c 1.67,-1.672 3.646,-5.996 -0.805,-10.433 L 310.406,3.396 C 308.178,1.171 305.951,0.027 303.753,0 c -1.675,-0.018 -3.278,0.64 -4.521,1.877 -0.294,0.315 -0.522,0.591 -0.685,0.805 L 229.396,71.827 208.505,50.945 c -4.546,-4.542 -7.548,-2.534 -8.617,-1.444 -2.372,2.366 -2.42,7.293 -2.372,8.403 l -8.448,89.505 c -0.036,0.456 -0.294,4.563 2.426,7.491 1.116,1.228 3.193,2.693 6.7,2.693 z"
           id="path6"
           style="fill:#fde74c;fill-opacity:1"
           inkscape:connector-curvature="0" /></g></g></g><g
     id="g14"
     transform="translate(-2.8346794,-301.09312)" /><g
     id="g16"
     transform="translate(-2.8346794,-301.09312)" /><g
     id="g18"
     transform="translate(-2.8346794,-301.09312)" /><g
     id="g20"
     transform="translate(-2.8346794,-301.09312)" /><g
     id="g22"
     transform="translate(-2.8346794,-301.09312)" /><g
     id="g24"
     transform="translate(-2.8346794,-301.09312)" /><g
     id="g26"
     transform="translate(-2.8346794,-301.09312)" /><g
     id="g28"
     transform="translate(-2.8346794,-301.09312)" /><g
     id="g30"
     transform="translate(-2.8346794,-301.09312)" /><g
     id="g32"
     transform="translate(-2.8346794,-301.09312)" /><g
     id="g34"
     transform="translate(-2.8346794,-301.09312)" /><g
     id="g36"
     transform="translate(-2.8346794,-301.09312)" /><g
     id="g38"
     transform="translate(-2.8346794,-301.09312)" /><g
     id="g40"
     transform="translate(-2.8346794,-301.09312)" /><g
     id="g42"
     transform="translate(-2.8346794,-301.09312)" /></svg>